<svg width="24" height="24" viewBox="0 0 24 24" fill="none" xmlns="http://www.w3.org/2000/svg">
<path d="M19.1325 12.5743C18.9024 12.5743 18.6817 12.6675 18.519 12.8333C18.3563 12.9992 18.2648 13.2241 18.2648 13.4586V17.2114C18.2648 17.2196 18.2559 17.2311 18.2391 17.2311H5.7607C5.74382 17.2311 5.73487 17.2196 5.73487 17.2114V5.78828C5.73487 5.77994 5.74382 5.7686 5.7607 5.7686H8.81935C8.93416 5.77002 9.0481 5.7482 9.15457 5.7044C9.26104 5.6606 9.35792 5.59569 9.4396 5.51344C9.52127 5.43118 9.58612 5.33322 9.63038 5.22523C9.67464 5.11724 9.69743 5.00137 9.69743 4.88433C9.69743 4.7673 9.67464 4.65143 9.63038 4.54344C9.58612 4.43545 9.52127 4.33748 9.4396 4.25523C9.35792 4.17298 9.26104 4.10807 9.15457 4.06427C9.0481 4.02047 8.93416 3.99864 8.81935 4.00007H5.7607C4.78973 4.00007 3.99991 4.80217 3.99991 5.78841V17.2115C3.99991 18.1975 4.78973 19 5.7607 19H18.2391C19.21 19 19.9999 18.1976 19.9999 17.2115V13.4586C19.9999 13.2241 19.9085 12.9992 19.7459 12.8334C19.5832 12.6675 19.3626 12.5743 19.1325 12.5743Z" fill="#0A0A0A"/>
<path d="M19.995 4.76284C19.9832 4.65115 19.95 4.54293 19.8972 4.44438C19.8445 4.34582 19.7733 4.25887 19.6876 4.18849C19.6019 4.11811 19.5035 4.06568 19.398 4.03421C19.2925 4.00274 19.182 3.99285 19.0727 4.00509C18.9904 4.01442 17.0306 4.24289 14.9545 5.41384C12.7717 6.64504 11.2738 8.45528 10.5457 10.7153L9.62811 8.00389C9.59251 7.89736 9.53668 7.79906 9.46383 7.71463C9.39097 7.63021 9.30253 7.56132 9.20356 7.51192C9.10459 7.46252 8.99705 7.43358 8.88712 7.42676C8.77718 7.41994 8.66701 7.43538 8.56293 7.47219C8.45884 7.509 8.36289 7.56645 8.28058 7.64125C8.19828 7.71605 8.13123 7.80673 8.0833 7.90808C8.03536 8.00943 8.00748 8.11946 8.00125 8.23186C7.99502 8.34425 8.01056 8.45679 8.04699 8.56303L9.69222 13.4244C9.76486 13.6388 9.91784 13.8149 10.1175 13.914C10.3172 14.0132 10.5472 14.0271 10.757 13.9529L10.7667 13.9494L15.5355 12.1917C15.7413 12.1126 15.9084 11.9537 16.0006 11.7496C16.0927 11.5455 16.1026 11.3125 16.028 11.1011C15.9534 10.8896 15.8003 10.7167 15.6019 10.6197C15.4035 10.5226 15.1757 10.5094 14.9678 10.5827L12.0104 11.6728C12.5446 9.6304 13.7862 8.04106 15.7152 6.93841C17.5021 5.91691 19.2381 5.70721 19.2556 5.7052C19.4758 5.68026 19.6774 5.56702 19.816 5.39034C19.9546 5.21366 20.019 4.98798 19.995 4.76284Z" fill="#0A0A0A"/>
</svg>
