<svg width="24" height="24" viewBox="0 0 24 24" fill="none" xmlns="http://www.w3.org/2000/svg">
<path d="M17.0484 17.6589C17.0484 18.2442 16.5562 18.7206 15.9521 18.7206H8.04844C7.75767 18.7201 7.47893 18.6082 7.27332 18.4092C7.06772 18.2101 6.95201 17.9404 6.95156 17.6589V6.38911H17.0484V17.6589ZM9.14531 4.48359C9.14531 4.36109 9.24375 4.26581 9.37031 4.26581H14.6438C14.7703 4.26581 14.8682 4.36109 14.8682 4.48359V5.1233H9.14531V4.48359ZM20.3391 5.1233H16.1766V4.48359C16.1766 3.66693 15.4875 3 14.6438 3H9.37031C8.96406 3.00086 8.5747 3.15745 8.28744 3.43549C8.00017 3.71353 7.83839 4.09038 7.8375 4.48359V5.1233H3.66094C3.29531 5.1233 3 5.40913 3 5.76301C3 6.11689 3.29531 6.40272 3.66094 6.40272H5.62969V17.6589C5.62969 18.2798 5.88452 18.8753 6.33812 19.3143C6.79173 19.7534 7.40695 20 8.04844 20H15.9516C16.5931 20 17.2083 19.7534 17.6619 19.3143C18.1155 18.8753 18.3703 18.2798 18.3703 17.6589V6.38911H20.3391C20.7047 6.38911 21 6.10328 21 5.7494C21 5.39552 20.7047 5.1233 20.3391 5.1233ZM12 16.8014C12.3656 16.8014 12.6609 16.5156 12.6609 16.1617V9.35629C12.6609 9.0024 12.3662 8.71657 12 8.71657C11.6344 8.71657 11.3391 9.0024 11.3391 9.35629V16.1617C11.3391 16.5156 11.6344 16.8014 12 16.8014ZM8.92031 16.8014C9.28594 16.8014 9.58125 16.5156 9.58125 16.1617V9.35629C9.58125 9.0024 9.28594 8.71657 8.92031 8.71657C8.55469 8.71657 8.25938 9.0024 8.25938 9.35629V16.1617C8.27344 16.5156 8.56875 16.8014 8.92031 16.8014ZM15.0797 16.8014C15.4453 16.8014 15.7412 16.5156 15.7412 16.1617V9.35629C15.7412 9.0024 15.4459 8.71657 15.0797 8.71657C14.7146 8.71657 14.4187 9.0024 14.4187 9.35629V16.1617C14.4187 16.5156 14.7141 16.8014 15.0797 16.8014Z" fill="black"/>
</svg>
